<?xml version="1.0" encoding="utf-8"?>
<!-- Generator: Adobe Illustrator 27.2.0, SVG Export Plug-In . SVG Version: 6.00 Build 0)  -->
<svg version="1.1" id="Layer_1" xmlns="http://www.w3.org/2000/svg" xmlns:xlink="http://www.w3.org/1999/xlink" x="0px" y="0px"
	 viewBox="0 0 485.7 397.6" style="enable-background:new 0 0 485.7 397.6;" xml:space="preserve">
<style type="text/css">
	.st0{fill-rule:evenodd;clip-rule:evenodd;fill:#FF3300;}
	.st1{fill-rule:evenodd;clip-rule:evenodd;fill:#FFFFFF;}
</style>
<g id="Symbols">
	<g id="Static-_x2F_-logo">
		<g id="logo">
			<path id="Back" class="st0" d="M0,0h485.7v397.6H0V0z"/>
			<g id="JBL" transform="translate(99.000000, 115.000000)">
				<path id="Path" class="st1" d="M218.7,166.7h83.2v-53h-27.5l0,29c0,7.8-6.3,14.1-14.1,14.1c-7.8,0-14.1-6.3-14.1-14.1V0.1h-27.4
					V166.7z"/>
				<path id="Combined-Shape" class="st1" d="M116.4,166.7V0.1h54.9c10.6,0,27.4,8.7,27.4,27.1v28.4c0,8.3-7.3,23-18.1,23
					c10.8,0,18.1,9.3,18.1,16.4v49.9c0,8.5-6.9,21.8-27.4,21.8H116.4z M158.8,71.8c10,0,12.5-1.7,12.5-27.8
					c0-26.1-2.5-28.2-12.5-28.2h-15v55.9L158.8,71.8z M171.3,119.6c0-26.1,0-33.8-10.8-33.8h-16.6V153l16.6,0
					C171.3,153,171.3,145.7,171.3,119.6z"/>
				<path id="Path_00000135660716497656341440000002055303938494139526_" class="st1" d="M12.4,137.7c0,12,10.8,31.5,41.6,31.5
					c30.8,0,41.6-14.9,41.6-31.5V0.1H68.2l0,142.3c0,7.8-6.3,14.3-14.1,14.3c-7.8,0-14.1-6.3-14.1-14.1l0-29H12.4V137.7z"/>
				<path id="Path_00000136371341395164732760000000050094053863523767_" class="st1" d="M26.2,95.5c8.8,0,15.9-7.1,15.9-15.8
					c0-8.8-7.1-15.8-15.9-15.8c-8.8,0-15.9,7.1-15.9,15.8C10.3,88.4,17.4,95.5,26.2,95.5z"/>
				<polygon id="Path_00000017510963701730113080000000100379502011210163_" class="st1" points="26.2,57.7 51.5,0.1 0.8,0.1 				
					"/>
			</g>
		</g>
	</g>
</g>
</svg>
